<svg xmlns="http://www.w3.org/2000/svg" width="522.279" height="1163.314" fill="none" viewBox="501.971 169.254 522.279 1163.314" id="mountaineer-trekking-using-help-of-map"><path fill="#F7ABA6" d="M625.553 1164.32H685.457L676.582 1228.66H616.678L625.553 1164.32Z"></path><path fill="#FDD39B" d="M621.115 1197.6H681.02L676.582 1228.66H616.678L621.115 1197.6Z"></path><path fill="#F7ABA6" d="M805.267 1164.32H865.171V1228.66H805.267V1164.32Z"></path><path fill="#FDD39B" d="M805.267 1197.6H835.219H865.171V1228.66H805.267V1197.6Z"></path><path fill="#7A431C" d="M847.216 1216.09C845.295 1219.73 841.519 1222.01 837.405 1222.01H829.545C825.937 1222.01 822.692 1219.81 821.352 1216.46V1216.46C820.012 1213.11 816.767 1210.91 813.159 1210.91H798.61V1279.69H832.445L849.363 1270.82H866.281L889.577 1273.04L900.116 1279.69H933.951L935.607 1268.1C937.194 1256.99 930.233 1246.44 919.392 1243.54L889.795 1235.6C880.997 1233.24 874.535 1225.74 873.501 1216.69L872.502 1207.94C872.117 1204.58 869.272 1202.04 865.889 1202.04H858.646C856.177 1202.04 853.911 1203.41 852.759 1205.59L847.216 1216.09Z"></path><path fill="#2E1503" d="M798.61 1261.94C801.452 1264.79 806.414 1266.38 810.433 1266.38H935.59V1279.69H893.39C892.434 1277.03 889.909 1275.26 887.08 1275.26H886.718C884.341 1275.26 882.116 1276.43 880.769 1278.39L879.87 1279.69H861.843C859.748 1276.9 856.46 1275.26 852.968 1275.26H848.881C845.134 1275.26 841.569 1276.87 839.102 1279.69H798.61V1261.94Z"></path><path fill="#69340E" d="M914.053 1242.1C913.102 1243.2 912.323 1244.46 911.764 1245.86 909.754 1250.88 904.887 1254.18 899.475 1254.18H896.233C889.494 1254.18 884.03 1259.64 884.03 1266.38H935.785C936.463 1255.92 929.672 1246.29 919.392 1243.54L914.053 1242.1zM798.61 1217.57H810.77C813.476 1217.57 815.909 1219.22 816.914 1221.73 818.589 1225.92 822.645 1228.66 827.155 1228.66H842.62C846.907 1228.66 850.81 1226.19 852.646 1222.32L857.821 1211.39C858.922 1209.07 861.264 1207.59 863.837 1207.59H872.452C871.915 1204.4 869.152 1202.04 865.888 1202.04H858.646C856.177 1202.04 853.911 1203.41 852.759 1205.59L847.216 1216.09C845.295 1219.73 841.519 1222.01 837.405 1222.01H829.545C825.936 1222.01 822.692 1219.81 821.352 1216.46 820.012 1213.11 816.767 1210.91 813.159 1210.91H798.61V1217.57z"></path><path fill="#F6E5C8" d="M872.969 1212.02H865.172C863.334 1212.02 861.844 1213.51 861.844 1215.35 861.844 1217.19 863.334 1218.68 865.172 1218.68H873.822C873.686 1218.03 873.579 1217.36 873.502 1216.69L873.476 1216.46H865.172C864.559 1216.46 864.062 1215.96 864.062 1215.35 864.062 1214.74 864.559 1214.24 865.172 1214.24H873.223L872.969 1212.02zM875.243 1223.12H867.39C865.552 1223.12 864.062 1224.61 864.062 1226.45 864.062 1228.28 865.552 1229.77 867.39 1229.77H879.776C879.087 1229.08 878.444 1228.34 877.853 1227.56H867.39C866.778 1227.56 866.281 1227.06 866.281 1226.45 866.281 1225.83 866.778 1225.34 867.39 1225.34H876.374C875.957 1224.62 875.579 1223.88 875.243 1223.12z"></path><path fill="#69340E" fill-rule="evenodd" d="M856.296 1205.37C856.296 1219.15 856.804 1229.88 863.941 1237.6C871.05 1245.29 884.49 1249.74 909.447 1251.96L909.643 1249.75C884.68 1247.53 872.05 1243.1 865.57 1236.09C859.116 1229.11 858.515 1219.32 858.515 1205.37H856.296ZM798.61 1247.52C809.026 1247.52 819.688 1255.97 819.688 1266.38H821.907C821.907 1254.74 810.251 1245.3 798.61 1245.3V1247.52Z" clip-rule="evenodd"></path><path fill="#CD8C38" d="M864.062 715.037L743.143 716.146L743.222 716.701H645.521L607.803 1190.95H689.894L757.565 819.315L791.954 1190.95H878.484L864.062 715.037Z"></path><path stroke="#8E4B0C" stroke-linecap="round" stroke-width="3.328" d="M763.111 786.035L689.894 1190.95H607.803"></path><path stroke="#495A27" stroke-width="13.312" d="M754.236 303.469C730.342 303.469 710.972 322.839 710.972 346.733V395.545"></path><path fill="#DB552B" d="M583.397 310.125V396.654H800.83V396.64C824.211 396.052 842.985 376.913 842.985 353.389C842.985 329.866 824.211 310.727 800.83 310.139V310.125H583.397Z"></path><path fill="#C04923" d="M840.522 367.811H592.271V396.654H800.829V396.64C819.184 396.178 834.7 384.284 840.522 367.811Z"></path><path fill="#7A431C" d="M636.645 310.125H602.705C611.612 301.863 623.539 296.813 636.645 296.813C664.215 296.813 686.566 319.163 686.566 346.733V396.654H673.253V346.733C673.253 326.515 656.863 310.125 636.645 310.125Z"></path><circle cx="586.725" cy="353.389" r="43.264" fill="#D04219"></circle><path stroke="#495A27" stroke-width="13.312" d="M753.127 303.469C777.021 303.469 796.392 322.839 796.392 346.733V397.763"></path><circle cx="586.725" cy="353.389" r="29.952" stroke="#DC5531" stroke-width="4.437"></circle><circle cx="586.725" cy="353.389" r="12.203" stroke="#DC5531" stroke-width="4.437"></circle><rect width="168.621" height="239.619" x="631.099" y="397.763" stroke="#000" stroke-width="2.219"></rect><rect width="15.531" height="86.529" x="558.991" y="469.871" fill="#7A431C" rx="2.219"></rect><path fill="#2B3B0A" d="M536.805 418.841C536.805 406.587 546.738 396.654 558.992 396.654H800.829V500.933H545.679C540.778 500.933 536.805 496.959 536.805 492.058V418.841Z"></path><rect width="188.589" height="155.309" x="525.711" y="554.181" fill="#2B3C0A" rx="22.187"></rect><path fill="#495927" d="M565.647 396.654H800.829V729.458H581.178C572.601 729.458 565.647 722.505 565.647 713.927V396.654Z"></path><path fill="#3A4A16" d="M565.647 396.654H621.115C626.016 396.654 629.99 400.627 629.99 405.529V729.458H583.397C573.594 729.458 565.647 721.511 565.647 711.709V396.654Z"></path><path fill="#304207" d="M576.309 727.987C570.034 725.25 565.647 718.992 565.647 711.709V675.894L590.861 650.681L606.549 666.369L621.115 675.1V682.866L576.309 727.987Z"></path><path fill="#2B3B0A" d="M592.271 396.654H598.928V459.887C598.928 461.725 597.438 463.215 595.6 463.215V463.215C593.762 463.215 592.271 461.725 592.271 459.887V396.654Z"></path><path fill="#202E05" d="M547.897 554.181H552.335V598.555C552.335 599.78 551.342 600.774 550.116 600.774V600.774C548.891 600.774 547.897 599.78 547.897 598.555V554.181Z"></path><rect width="13.312" height="8.875" x="590.053" y="594.118" fill="#B1320A"></rect><path fill="#D34316" d="M618.896 611.867C618.896 604.515 612.936 598.555 605.584 598.555H587.835C580.483 598.555 574.523 604.515 574.523 611.867V662.897H618.896V611.867Z"></path><path fill="#DB552B" d="M618.896 662.897H581.179V611.867C581.179 604.515 587.933 598.555 596.266 598.555H603.809C613.35 598.555 618.896 604.515 618.896 611.867V662.897Z"></path><rect width="17.75" height="13.312" x="587.834" y="583.024" fill="#D04219" rx="2.219"></rect><path fill="#2B3B0A" d="M572.304 622.961H621.115V678.428C621.115 684.555 616.148 689.522 610.022 689.522H596.709H583.397C577.27 689.522 572.304 684.555 572.304 678.428V622.961Z"></path><path fill="#241B14" d="M724.126 338.921C701.093 335.256 705.372 316.756 708.3 290.293L740.027 285.991C740.848 295.382 738.817 319.117 724.126 338.921Z"></path><path fill="#F7ABA6" d="M748.932 263.367C734.869 261.301 722.022 271.641 721.037 285.821L719.274 311.173C719.153 312.917 719.329 314.67 719.796 316.356C720.266 318.049 720.81 317.819 720.686 319.566L716.852 374.39L710.56 411.083L771.084 416.664L775.72 374.765L779.339 375.165C791.518 376.513 802.484 367.732 803.831 355.553L810.174 298.226C812.865 284.546 803.569 271.396 789.776 269.369L748.932 263.367Z"></path><path fill="#CE5E56" d="M746.192 371.498L778.168 375.036L776.704 388.268L746.192 371.498Z"></path><circle cx="769.943" cy="308.029" r="3.328" fill="#241B14" transform="rotate(6.314 769.943 308.029)"></circle><path fill="#241B14" fill-rule="evenodd" d="M775.624 299.948C771.159 296.748 765.107 297.182 761.148 300.844C760.698 301.26 760 301.305 759.543 300.897V300.897C759.086 300.489 759.043 299.784 759.487 299.361C764.207 294.856 771.53 294.283 776.917 298.145L777.681 298.692C778.179 299.049 778.293 299.742 777.936 300.24C777.579 300.738 776.886 300.852 776.388 300.495L775.624 299.948Z" clip-rule="evenodd"></path><circle cx="796.392" cy="311.201" r="3.328" fill="#241B14" transform="rotate(6.314 796.392 311.201)"></circle><path fill="#241B14" fill-rule="evenodd" d="M790.288 301.816C795.345 299.669 801.155 301.416 804.218 305.855C804.566 306.36 805.237 306.556 805.773 306.258V306.258C806.308 305.959 806.504 305.28 806.164 304.771C802.542 299.343 795.522 297.184 789.421 299.773L788.555 300.141C787.991 300.38 787.728 301.031 787.968 301.595C788.207 302.159 788.858 302.422 789.422 302.183L790.288 301.816Z" clip-rule="evenodd"></path><path stroke="#000" stroke-width="2.219" d="M759.783 593.255H797.624V613.212L779.736 633.993H759.783V593.255Z"></path><path stroke="#000" stroke-width="2.219" d="M766.439 584.38H804.28V604.337L786.392 625.118H766.439V584.38Z"></path><path fill="#2B3B0A" d="M760.893 592.146H800.952V613.624L782.463 635.102H760.893V592.146Z"></path><path fill="#2B3B0A" d="M774.944 594.673L827.33 558.033V539.082H858.145V554.588C858.145 559.962 855.711 565.046 851.524 568.416L774.944 630.049V594.673Z"></path><path fill="#2A5F49" d="M714.3 378.904C710.624 378.904 707.644 381.884 707.644 385.56V394.857C707.644 397.137 705.917 399.045 703.649 399.273L663.331 403.31C655.239 403.31 647.947 408.193 644.866 415.675L635.562 438.271C634.815 440.087 634.478 442.044 634.576 444.005L644.866 601.883L641.083 687.303C641.083 694.655 647.043 709.49 654.395 709.49H845.003C852.433 709.49 865.081 694.533 864.97 687.104L854.459 589.68V428.822C854.248 414.671 843.825 398.873 829.672 398.873H790.845C788.394 398.873 786.408 396.886 786.408 394.435V385.56C786.408 381.884 783.428 378.904 779.752 378.904H714.3Z"></path><path fill="#2B3B0A" fill-rule="evenodd" d="M786.407 401.091H809.704C818.281 401.091 825.234 408.045 825.234 416.622V532.734C825.234 537.635 829.208 541.609 834.109 541.609H858.515V418.841C858.515 409.038 850.568 401.091 840.765 401.091H842.984C842.984 397.415 840.004 394.435 836.328 394.435H786.407V401.091Z" clip-rule="evenodd"></path><rect width="11.094" height="51.03" fill="#1A4E38" rx="2.219" transform="scale(-1 1) rotate(30 -1553.633 -1231.201)"></rect><path fill="#2B3B0A" d="M836.328 525.338H858.515V554.181 554.181C846.262 554.181 836.328 544.248 836.328 531.994V525.338zM646.261 634.609L679.705 611.218C691.576 602.915 698.647 589.341 698.647 574.855V536.863H729.462V581.776C729.462 595.211 723.375 607.922 712.909 616.345L646.261 669.985V634.609z"></path><path fill="#263408" d="M656.218 627.645L646.261 634.609V669.985L671.825 649.41C672.115 648.812 672.269 648.151 672.269 647.476V632.082C672.269 629.631 670.282 627.645 667.831 627.645H656.218Z"></path><path fill="#2B3B0A" d="M627.771 636.519C627.771 634.069 629.757 632.082 632.208 632.082H663.393C665.844 632.082 667.83 634.069 667.83 636.519V651.913C667.83 652.976 667.449 654.003 666.756 654.808L650.669 673.496C649.826 674.475 648.598 675.038 647.306 675.038H632.208C629.757 675.038 627.771 673.052 627.771 670.601V636.519Z"></path><path fill="#235842" d="M638.864 500.933L634.427 447.684L736.487 488.73C737.596 491.318 742.033 501.82 742.033 531.994C742.033 531.994 675.473 530.885 638.864 500.933Z"></path><path stroke="#1A4E38" stroke-width="2.219" d="M720.956 381.123V398.873M743.144 381.123V398.873"></path><path fill="#2B3B0A" d="M674.363 398.873H716.519C728.772 398.873 738.705 408.806 738.705 421.06V526.078C738.705 533.43 732.745 539.39 725.393 539.39H698.646V426.55C698.646 418.982 694.788 411.936 688.413 407.859L674.363 398.873Z"></path><path fill="#2B3B0A" d="M729.831 525.338H707.644V554.181V554.181C719.898 554.181 729.831 544.248 729.831 531.994V525.338Z"></path><path fill="#7A431C" d="M660.846 1216.09C658.925 1219.73 655.149 1222.01 651.035 1222.01H643.175C639.566 1222.01 636.322 1219.81 634.982 1216.46V1216.46C633.642 1213.11 630.397 1210.91 626.789 1210.91H616.678L612.24 1279.69H646.075L662.993 1270.82H679.91L703.207 1273.04L713.746 1279.69H747.581L749.237 1268.1C750.824 1256.99 743.863 1246.44 733.022 1243.54L703.425 1235.6C694.627 1233.24 688.165 1225.74 687.131 1216.69L686.131 1207.94C685.747 1204.58 682.902 1202.04 679.518 1202.04H672.276C669.807 1202.04 667.541 1203.41 666.389 1205.59L660.846 1216.09Z"></path><path fill="#2E1503" d="M613.35 1261.94C616.191 1264.79 620.044 1266.38 624.062 1266.38H749.22V1279.69H707.02C706.063 1277.03 703.539 1275.26 700.71 1275.26H700.348C697.971 1275.26 695.746 1276.43 694.399 1278.39L693.5 1279.69H675.473C673.378 1276.9 670.09 1275.26 666.598 1275.26H662.51C658.763 1275.26 655.199 1276.87 652.731 1279.69H612.24L613.35 1261.94Z"></path><path stroke="#1A4E38" stroke-width="4.437" d="M769.768 380.014L770.877 406.638L778.642 602.993L780.813 613.122C785.9 636.86 783.594 661.587 774.205 683.975V683.975L768.658 710.599"></path><path fill="#2A5F49" d="M634.427 682.865C634.427 680.415 636.413 678.428 638.864 678.428H862.952C865.403 678.428 867.39 680.415 867.39 682.865V711.709C867.39 714.159 865.403 716.146 862.952 716.146H638.864C636.413 716.146 634.427 714.159 634.427 711.709V682.865Z"></path><path fill="#1A4E38" fill-rule="evenodd" d="M635.536 678.428C635.536 677.816 636.033 677.319 636.645 677.319H865.171C865.784 677.319 866.28 677.816 866.28 678.428C866.28 679.041 865.784 679.538 865.171 679.538H636.645C636.033 679.538 635.536 679.041 635.536 678.428Z" clip-rule="evenodd"></path><path fill="#2B3B0A" d="M629.989 397.763C629.989 395.925 631.479 394.435 633.317 394.435H714.3C717.976 394.435 720.956 397.415 720.956 401.091V401.091H633.317C631.479 401.091 629.989 399.601 629.989 397.763V397.763Z"></path><path fill="#255340" d="M631.832 423.283C637.408 405.065 656.443 394.567 674.826 399.573V399.573C693.752 404.726 704.838 424.332 699.498 443.207L659.942 583.024L639.954 587.076C611.933 592.756 588.028 566.411 596.395 539.072L631.832 423.283Z"></path><path fill="#255340" d="M730.804 500.442C736.735 499.242 742.534 503.017 743.837 508.926L752.437 547.922C753.728 553.778 750.133 559.6 744.319 561.067L644.512 586.262C629.905 589.95 615.15 580.793 611.971 566.067L603.367 526.219L730.804 500.442Z"></path><path fill="#F7ABA6" d="M806.376 486.511C806.376 486.511 789.736 482.074 780.861 486.511C774.579 489.652 768.658 497.604 764.221 500.933C749.942 506.479 755.692 507.286 755.489 511.382L803.18 499.594L806.376 486.511Z"></path><path fill="#D39974" d="M873.273 450.17L821.275 435.746C819.065 435.133 816.752 436.306 815.939 438.45L756.278 595.932C755.476 598.05 756.397 600.432 758.416 601.459L808.888 627.132C810.125 627.761 811.586 627.775 812.835 627.17L849.149 609.576C850.254 609.041 851.533 608.987 852.679 609.429L890.575 624.031C891.731 624.476 893.02 624.418 894.131 623.871L922.333 609.982C923.276 609.518 924.023 608.734 924.442 607.77L997.886 438.767C999.569 434.894 995.401 431.081 991.693 433.103L968.347 445.829C967.26 446.421 965.975 446.533 964.802 446.136L921.595 431.528C920.553 431.176 919.417 431.223 918.407 431.661L876.225 449.965C875.294 450.369 874.251 450.442 873.273 450.17Z"></path><path fill="#E6C9A7" d="M811.923 627.398L875.156 449.903L919.53 431.044L852.969 609.649L811.923 627.398Z"></path><path fill="#F7ABA6" d="M752.018 504.261L758.674 546.416L760.892 544.197L779.091 543.469C785.376 543.218 791.536 541.633 797.162 538.82L810.813 531.994L808.594 499.823L786.407 495.386L752.018 504.261Z"></path><path fill="#69340E" d="M727.682 1242.1C726.732 1243.2 725.953 1244.46 725.394 1245.86 723.384 1250.88 718.517 1254.18 713.105 1254.18H709.863C703.124 1254.18 697.66 1259.64 697.66 1266.38H749.415C750.093 1255.92 743.302 1246.29 733.022 1243.54L727.682 1242.1zM616.248 1217.57H624.4C627.106 1217.57 629.539 1219.22 630.544 1221.73 632.219 1225.92 636.275 1228.66 640.785 1228.66H656.25C660.537 1228.66 664.44 1226.19 666.275 1222.32L671.451 1211.39C672.552 1209.07 674.894 1207.59 677.466 1207.59H686.081C685.545 1204.4 682.782 1202.04 679.518 1202.04H672.275C669.807 1202.04 667.541 1203.41 666.389 1205.59L660.845 1216.09C658.925 1219.73 655.149 1222.01 651.034 1222.01H643.174C639.566 1222.01 636.322 1219.81 634.982 1216.46 633.642 1213.11 630.397 1210.91 626.789 1210.91H616.677L616.248 1217.57z"></path><path fill="#F6E5C8" d="M686.598 1212.02H678.801C676.963 1212.02 675.473 1213.51 675.473 1215.35 675.473 1217.19 676.963 1218.68 678.801 1218.68H687.451C687.315 1218.03 687.208 1217.36 687.131 1216.69L687.105 1216.46H678.801C678.188 1216.46 677.691 1215.96 677.691 1215.35 677.691 1214.74 678.188 1214.24 678.801 1214.24H686.851L686.598 1212.02zM688.872 1223.12H681.019C679.181 1223.12 677.691 1224.61 677.691 1226.45 677.691 1228.28 679.181 1229.77 681.019 1229.77H693.405C692.715 1229.08 692.073 1228.34 691.482 1227.56H681.019C680.407 1227.56 679.91 1227.06 679.91 1226.45 679.91 1225.83 680.407 1225.34 681.019 1225.34H690.003C689.586 1224.62 689.208 1223.88 688.872 1223.12z"></path><path fill="#69340E" fill-rule="evenodd" d="M669.926 1205.37C669.926 1219.15 670.434 1229.88 677.571 1237.6C684.68 1245.29 698.12 1249.74 723.077 1251.96L723.273 1249.75C698.31 1247.53 685.679 1243.1 679.2 1236.09C672.746 1229.11 672.145 1219.32 672.145 1205.37H669.926ZM614.459 1247.52C624.874 1247.52 633.318 1255.97 633.318 1266.38H635.537C635.537 1254.74 626.1 1245.3 614.459 1245.3V1247.52Z" clip-rule="evenodd"></path><rect width="11.094" height="51.03" x="737.597" y="611.867" fill="#1A4E38" rx="2.219" transform="rotate(30 737.597 611.867)"></rect><path fill="#BD4C00" d="M710.987 266.012C713.566 242.703 733.067 224.944 756.515 224.55L767.77 224.362C767.958 224.358 768.146 224.379 768.329 224.423L779.27 227.068C802.065 232.578 817.212 254.172 814.633 277.481L813.288 289.632C813.154 290.85 812.057 291.728 810.839 291.594L711.603 280.613C710.385 280.478 709.507 279.382 709.642 278.164L710.987 266.012Z"></path><path fill="#D56011" fill-rule="evenodd" d="M802.018 290.618C803.236 290.753 804.333 289.875 804.468 288.657L805.928 275.461C808.457 252.604 793.931 231.32 771.724 225.345L768.384 224.446C768.288 224.42 768.19 224.401 768.092 224.388C767.967 224.372 767.84 224.366 767.713 224.371L764.256 224.518C741.28 225.494 722.453 243.087 719.923 265.945L718.463 279.14C718.329 280.358 719.207 281.455 720.425 281.59L802.018 290.618ZM802.262 288.413L803.722 275.217C805.829 256.183 795.517 238.296 778.756 230.297C788.014 237.775 793.162 249.617 791.795 261.966L789.031 286.949L802.262 288.413ZM736.664 255.866C738.031 243.516 745.643 233.086 756.312 227.813C738.207 231.954 724.235 247.155 722.129 266.189L720.669 279.384L733.9 280.848L736.664 255.866ZM738.87 256.11L736.105 281.092L749.337 282.556L753.728 242.868C754.384 236.944 757.35 231.625 761.831 227.962C749.489 231.941 740.337 242.845 738.87 256.11ZM773.338 229.235C784.511 235.817 791.058 248.457 789.59 261.722L786.826 286.705L773.594 285.241L777.986 245.552C778.641 239.629 776.91 233.789 773.338 229.235ZM771.389 284.997L775.781 245.308C776.571 238.165 773.51 231.157 767.775 226.88C761.243 229.8 756.724 235.969 755.934 243.112L751.542 282.8L771.389 284.997Z" clip-rule="evenodd"></path><path fill="#241B14" d="M755.708 285.493L709.398 280.369L707.568 296.908C710.877 295.688 724.782 299.047 730.132 300.325C731.072 300.55 731.761 301.349 731.845 302.311L732.689 311.965L735.996 312.331C737.214 312.466 738.264 311.567 738.648 310.404C740.546 304.659 746.902 308.431 751.551 302.891C756.693 296.763 755.708 285.493 755.708 285.493Z"></path><rect width="108.716" height="17.75" x="708.413" y="269.099" fill="#9F4000" rx="2.219" transform="rotate(6.314 708.413 269.099)"></rect><path fill="#F7ABA6" d="M735.25 307.784C734.883 321.137 728.991 320.485 721.724 319.681C714.456 318.877 710.316 312.422 711.125 305.115C711.933 297.807 717.384 292.414 724.652 293.218C731.919 294.022 736.059 300.477 735.25 307.784Z"></path><path fill="#CE5E56" fill-rule="evenodd" d="M720.555 300.824C721.072 300.495 721.758 300.647 722.087 301.164L727.139 309.106C727.468 309.623 727.316 310.309 726.799 310.638C726.282 310.966 725.596 310.814 725.268 310.297L720.215 302.355C719.886 301.838 720.038 301.152 720.555 300.824Z" clip-rule="evenodd"></path><rect width="13.312" height="8.875" x="714.541" y="274.242" fill="#FBBC91" rx="2.219" transform="rotate(6.314 714.541 274.242)"></rect><path fill="#CB712F" d="M722.065 746.098C672.145 787.144 641.083 763.848 641.083 763.848L645.52 716.146H861.843C847.422 736.114 749.799 723.295 722.065 746.098Z"></path><path fill="#BD4C00" d="M771.105 226.468C771.169 226.262 771.215 226.048 771.24 225.826C771.442 223.999 770.125 222.354 768.298 222.152C766.471 221.95 764.826 223.267 764.624 225.094C764.6 225.316 764.598 225.535 764.616 225.75L767.932 225.46L771.105 226.468Z"></path><path fill="#B1320A" d="M590.607 586.352C590.607 586.046 590.359 585.798 590.053 585.798 589.746 585.798 589.498 586.046 589.498 586.352V593.008C589.498 593.315 589.746 593.563 590.053 593.563 590.359 593.563 590.607 593.315 590.607 593.008V586.352zM595.045 586.352C595.045 586.046 594.796 585.798 594.49 585.798 594.184 585.798 593.935 586.046 593.935 586.352V593.008C593.935 593.315 594.184 593.563 594.49 593.563 594.796 593.563 595.045 593.315 595.045 593.008V586.352zM598.928 585.798C599.234 585.798 599.482 586.046 599.482 586.352V593.008C599.482 593.315 599.234 593.563 598.928 593.563 598.621 593.563 598.373 593.315 598.373 593.008V586.352C598.373 586.046 598.621 585.798 598.928 585.798zM603.92 586.352C603.92 586.046 603.671 585.798 603.365 585.798 603.059 585.798 602.81 586.046 602.81 586.352V593.008C602.81 593.315 603.059 593.563 603.365 593.563 603.671 593.563 603.92 593.315 603.92 593.008V586.352z"></path><path stroke="#CE5E56" stroke-linecap="round" stroke-linejoin="round" stroke-width="2.219" d="M783.409 319.797L785.298 333.421L779.618 333.887"></path><path fill="#F7ABA6" d="M781.971 495.386L794.174 505.37 802.144 503.776C804.215 503.362 806.217 502.654 808.088 501.674L826.241 492.165C827.669 491.417 828.563 489.938 828.563 488.326 828.563 485.301 825.541 483.207 822.709 484.269L803.618 491.428C802.501 491.847 801.347 492.156 800.17 492.353L781.971 495.386zM784.188 526.448L796.391 536.432 806.475 533.682C807.884 533.297 809.252 532.775 810.559 532.121L828.401 523.2C829.86 522.471 830.781 520.98 830.781 519.349 830.781 516.342 827.778 514.261 824.963 515.317L805.836 522.49C804.719 522.909 803.564 523.218 802.388 523.414L784.188 526.448z"></path><path fill="#F7ABA6" d="M789.735 503.151L801.938 513.135L809.909 511.541C811.98 511.127 813.982 510.419 815.853 509.439L834.005 499.93C835.433 499.183 836.328 497.704 836.328 496.092C836.328 493.066 833.306 490.972 830.473 492.035L811.382 499.194C810.266 499.612 809.111 499.922 807.935 500.118L789.735 503.151Z"></path><path stroke="#CE5E56" stroke-linecap="round" stroke-width="3.328" d="M791.954 494.276L822.892 483.964C825.681 483.034 828.563 485.111 828.563 488.051V488.051C828.563 489.803 827.502 491.38 825.88 492.041L798.61 503.151"></path><path fill="#F7ABA6" d="M826.919 503.608L807.537 512.136C806.07 512.782 804.874 513.92 804.157 515.354L806.376 523.119L825.235 515.354L831.067 512.438C832.895 511.524 833.96 509.567 833.734 507.535C833.37 504.262 829.934 502.282 826.919 503.608Z"></path><path stroke="#CE5E56" stroke-linecap="round" stroke-width="3.328" d="M803.048 513.135L826.908 503.414C829.964 502.17 833.362 504.191 833.727 507.47V507.47C833.957 509.541 832.872 511.536 831.008 512.467L825.235 515.354"></path><path stroke="#CE5E56" stroke-linecap="round" stroke-width="3.328" d="M804.157 523.12L824.964 515.317C827.779 514.261 830.782 516.342 830.782 519.349V519.349C830.782 520.98 829.86 522.471 828.401 523.2L808.595 533.104C800.459 537.171 781.083 545.085 768.658 544.197"></path><rect width="50.829" height="19.675" x="757.818" y="498.714" fill="#255340" rx="2.219" transform="rotate(76.27 757.818 498.714)"></rect><path stroke="#CE5E56" stroke-linecap="round" stroke-width="3.328" d="M820.798 494.276L829.869 491.037C833.017 489.912 836.329 492.246 836.329 495.589V495.589C836.329 497.491 835.213 499.216 833.479 499.996L814.142 508.698"></path><path fill="#fff" d="M786.021 344.227L770.388 341.466C769.722 341.348 769.104 341.849 769.132 342.525C769.295 346.416 770.779 351.786 776.568 351.881C782.233 351.975 785.56 348.397 786.805 345.571C787.066 344.977 786.659 344.34 786.021 344.227Z"></path><path fill="#E6C9A7" d="M894.015 625.179L966.122 446.575L991.255 432.075C993.325 430.881 995.969 431.54 997.235 433.567L1000.51 438.809L926.186 608.539L894.015 625.179Z"></path><path fill="#F7ABA6" d="M957.39 500.243C955.2 498.485 950.916 497.942 949.296 500.242C947.825 502.33 949.272 506.2 951.211 507.842C950.057 508.089 948.003 507.648 947.264 508.698C945.788 510.793 947.149 514.782 949.104 516.421C947.933 516.666 945.795 517.617 945.045 518.682C943.573 520.772 944.976 523.37 946.909 525.037L948.28 526.218C947.474 526.49 946.73 526.983 946.145 527.69C944.638 529.512 944.684 532.171 946.254 533.938L954.917 543.69C957.803 546.939 961.947 547.563 966.123 546.416C968.662 545.718 970.139 544.136 971.669 541.978L980.544 528.666C984.56 523.004 985.965 516.334 981.856 510.739L972.779 500.933L969.451 508.698L957.39 500.243Z"></path><path stroke="#DB7D76" stroke-linecap="round" stroke-width="3.328" d="M972.778 500.932L979.601 508.243C984.661 513.665 985.182 521.908 980.844 527.924L970.954 541.64C969.502 543.653 967.404 545.108 965.009 545.761V545.761C961.045 546.842 956.81 545.591 954.071 542.529L945.04 532.435C943.768 531.014 943.73 528.875 944.951 527.409V527.409C946.324 525.762 948.78 525.556 950.408 526.951L960.39 535.507"></path><path stroke="#DB7D76" stroke-linecap="round" stroke-width="3.328" d="M973.887 514.06L955.146 499.12C953.358 497.695 950.74 498.065 949.417 499.93V499.93C948.205 501.639 948.524 503.995 950.149 505.319L966.542 518.682M971.668 522.935L952.927 507.995C951.139 506.569 948.521 506.939 947.198 508.804V508.804C945.986 510.513 946.306 512.87 947.93 514.194L964.324 527.557M969.45 531.809L950.745 516.899C948.937 515.458 946.29 515.832 944.952 517.718V517.718C943.747 519.416 944.036 521.752 945.618 523.106L961.187 536.432"></path><path fill="#D4726B" fill-rule="evenodd" d="M786.828 345.515L769.142 342.723C769.139 342.656 769.136 342.591 769.133 342.525C769.104 341.849 769.722 341.349 770.388 341.467L786.021 344.228C786.64 344.337 787.041 344.938 786.828 345.515Z" clip-rule="evenodd"></path><path stroke="#8E4B0C" stroke-linecap="round" stroke-width="3.328" d="M610.021 1159.89H695.441M789.735 1159.89H876.264"></path><path fill="#8E4B0C" fill-rule="evenodd" d="M707.238 757.906C701.49 763.818 693.54 768.709 683.238 769.328C682.015 769.402 681.02 768.401 681.02 767.176V767.176C681.02 765.95 682.016 764.965 683.238 764.881C692.074 764.273 698.945 760.07 704.056 754.813C708.818 749.915 711.985 744.163 713.671 739.774C714.11 738.63 715.347 737.972 716.519 738.333V738.333C717.69 738.693 718.351 739.936 717.92 741.083C716.068 746.014 712.564 752.428 707.238 757.906Z" clip-rule="evenodd"></path></svg>